# xmcd
#
# Track frame offsets:
#       225
#       19502
#       37727
#       61920
#       81630
#       99530
#       116307
#       133112
#       141380
#       161305
#       179425
#       197177
#       233040
#       253445
#       267725
#       283242
#       300615
#       314320
#
# Disc length: 4417 seconds
#
# Revision: 1
# Processed by: cddbd v1.5.2PL0 Copyright (c) Steve Scherf et al.
# Submitted via: FreeDbEdit v0.1
#
DISCID=09113e12
DTITLE=Janis Joplin - Greatest Hits
DYEAR=1990
DGENRE=Blues
TTITLE0=Peace of My Heart
TTITLE1=Summertime
TTITLE2=To Love Somebody
TTITLE3=Kozmic Blues
TTITLE4=Try (Just a Little Bit Harder)
TTITLE5=Maybe
TTITLE6=Move Over
TTITLE7=Mercedes Benz
TTITLE8=Turtle Blues
TTITLE9=Cry Baby
TTITLE10=Half Moon
TTITLE11=Ball And Chain (Live)
TTITLE12=Me and My Baby McGee
TTITLE13=Trust Me
TTITLE14=Get It While You Can
TTITLE15=Little Girl Blue
TTITLE16=Down on Me
TTITLE17=Bye, Bye Baby
EXTD=
EXTT0=
EXTT1=
EXTT2=
EXTT3=
EXTT4=
EXTT5=
EXTT6=
EXTT7=
EXTT8=
EXTT9=
EXTT10=
EXTT11=
EXTT12=
EXTT13=
EXTT14=
EXTT15=
EXTT16=
EXTT17=
PLAYORDER=
